<mxfile host="app.diagrams.net" modified="2022-11-23T03:51:13.746Z" agent="5.0 (Windows NT 10.0; Win64; x64) AppleWebKit/537.36 (KHTML, like Gecko) Chrome/107.0.0.0 Safari/537.36" version="20.6.0" etag="CtFQTYg3KEISHJVzuVWP" type="github">
  <diagram id="GQ4QWl2AqnbZf4En6-W0" name="PÃ¡gina-1">
    <mxGraphModel dx="924" dy="543" grid="1" gridSize="10" guides="1" tooltips="1" connect="1" arrows="1" fold="1" page="1" pageScale="1" pageWidth="827" pageHeight="1169" math="0" shadow="0">
      <root>
        <mxCell id="0" />
        <mxCell id="1" parent="0" />
        <mxCell id="sLV_BqBoZg84xg_BYXa9-9" style="edgeStyle=orthogonalEdgeStyle;rounded=0;orthogonalLoop=1;jettySize=auto;html=1;exitX=0.25;exitY=0;exitDx=0;exitDy=0;entryX=0.5;entryY=1;entryDx=0;entryDy=0;" edge="1" parent="1" source="sLV_BqBoZg84xg_BYXa9-3" target="sLV_BqBoZg84xg_BYXa9-8">
          <mxGeometry relative="1" as="geometry" />
        </mxCell>
        <mxCell id="sLV_BqBoZg84xg_BYXa9-10" style="edgeStyle=orthogonalEdgeStyle;rounded=0;orthogonalLoop=1;jettySize=auto;html=1;exitX=0.5;exitY=0;exitDx=0;exitDy=0;entryX=0;entryY=1;entryDx=0;entryDy=0;" edge="1" parent="1" source="sLV_BqBoZg84xg_BYXa9-3" target="sLV_BqBoZg84xg_BYXa9-7">
          <mxGeometry relative="1" as="geometry" />
        </mxCell>
        <mxCell id="sLV_BqBoZg84xg_BYXa9-11" style="edgeStyle=orthogonalEdgeStyle;rounded=0;orthogonalLoop=1;jettySize=auto;html=1;exitX=1;exitY=0.5;exitDx=0;exitDy=0;entryX=0;entryY=0.5;entryDx=0;entryDy=0;" edge="1" parent="1" source="sLV_BqBoZg84xg_BYXa9-3" target="sLV_BqBoZg84xg_BYXa9-6">
          <mxGeometry relative="1" as="geometry" />
        </mxCell>
        <mxCell id="sLV_BqBoZg84xg_BYXa9-12" style="edgeStyle=orthogonalEdgeStyle;rounded=0;orthogonalLoop=1;jettySize=auto;html=1;exitX=0;exitY=0.5;exitDx=0;exitDy=0;" edge="1" parent="1" source="sLV_BqBoZg84xg_BYXa9-3" target="sLV_BqBoZg84xg_BYXa9-5">
          <mxGeometry relative="1" as="geometry" />
        </mxCell>
        <mxCell id="sLV_BqBoZg84xg_BYXa9-13" style="edgeStyle=orthogonalEdgeStyle;rounded=0;orthogonalLoop=1;jettySize=auto;html=1;exitX=1;exitY=0.75;exitDx=0;exitDy=0;entryX=0.2;entryY=0;entryDx=0;entryDy=0;entryPerimeter=0;" edge="1" parent="1" source="sLV_BqBoZg84xg_BYXa9-3" target="sLV_BqBoZg84xg_BYXa9-4">
          <mxGeometry relative="1" as="geometry" />
        </mxCell>
        <mxCell id="sLV_BqBoZg84xg_BYXa9-3" value="PROVEEDOR" style="whiteSpace=wrap;html=1;align=center;fillColor=#fff2cc;strokeColor=#d6b656;" vertex="1" parent="1">
          <mxGeometry x="110" y="120" width="100" height="40" as="geometry" />
        </mxCell>
        <mxCell id="sLV_BqBoZg84xg_BYXa9-4" value="PROVINCIA" style="ellipse;whiteSpace=wrap;html=1;align=center;fillColor=#ffe6cc;strokeColor=#d79b00;" vertex="1" parent="1">
          <mxGeometry x="260" y="200" width="100" height="40" as="geometry" />
        </mxCell>
        <mxCell id="sLV_BqBoZg84xg_BYXa9-5" value="CIUDAD" style="ellipse;whiteSpace=wrap;html=1;align=center;fillColor=#ffe6cc;strokeColor=#d79b00;" vertex="1" parent="1">
          <mxGeometry x="10" y="190" width="100" height="40" as="geometry" />
        </mxCell>
        <mxCell id="sLV_BqBoZg84xg_BYXa9-6" value="DIRECCION" style="ellipse;whiteSpace=wrap;html=1;align=center;fillColor=#ffe6cc;strokeColor=#d79b00;" vertex="1" parent="1">
          <mxGeometry x="280" y="120" width="100" height="40" as="geometry" />
        </mxCell>
        <mxCell id="sLV_BqBoZg84xg_BYXa9-7" value="NOMBRE" style="ellipse;whiteSpace=wrap;html=1;align=center;fillColor=#ffe6cc;strokeColor=#d79b00;" vertex="1" parent="1">
          <mxGeometry x="150" y="30" width="100" height="40" as="geometry" />
        </mxCell>
        <mxCell id="sLV_BqBoZg84xg_BYXa9-8" value="COD_PROV" style="ellipse;whiteSpace=wrap;html=1;align=center;fontStyle=4;fillColor=#647687;strokeColor=#314354;fontColor=#ffffff;" vertex="1" parent="1">
          <mxGeometry x="20" y="30" width="100" height="40" as="geometry" />
        </mxCell>
        <mxCell id="sLV_BqBoZg84xg_BYXa9-14" value="SUMINISTRA" style="shape=rhombus;perimeter=rhombusPerimeter;whiteSpace=wrap;html=1;align=center;fillColor=#dae8fc;strokeColor=#6c8ebf;" vertex="1" parent="1">
          <mxGeometry x="90" y="300" width="120" height="60" as="geometry" />
        </mxCell>
        <mxCell id="sLV_BqBoZg84xg_BYXa9-22" style="edgeStyle=orthogonalEdgeStyle;rounded=0;orthogonalLoop=1;jettySize=auto;html=1;exitX=0.25;exitY=0;exitDx=0;exitDy=0;entryX=0.5;entryY=1;entryDx=0;entryDy=0;" edge="1" parent="1" source="sLV_BqBoZg84xg_BYXa9-15" target="sLV_BqBoZg84xg_BYXa9-19">
          <mxGeometry relative="1" as="geometry" />
        </mxCell>
        <mxCell id="sLV_BqBoZg84xg_BYXa9-23" style="edgeStyle=orthogonalEdgeStyle;rounded=0;orthogonalLoop=1;jettySize=auto;html=1;exitX=0.75;exitY=0;exitDx=0;exitDy=0;entryX=0;entryY=0.5;entryDx=0;entryDy=0;" edge="1" parent="1" source="sLV_BqBoZg84xg_BYXa9-15" target="sLV_BqBoZg84xg_BYXa9-21">
          <mxGeometry relative="1" as="geometry" />
        </mxCell>
        <mxCell id="sLV_BqBoZg84xg_BYXa9-24" style="edgeStyle=orthogonalEdgeStyle;rounded=0;orthogonalLoop=1;jettySize=auto;html=1;exitX=1;exitY=0.5;exitDx=0;exitDy=0;entryX=0.427;entryY=-0.05;entryDx=0;entryDy=0;entryPerimeter=0;" edge="1" parent="1" source="sLV_BqBoZg84xg_BYXa9-15" target="sLV_BqBoZg84xg_BYXa9-20">
          <mxGeometry relative="1" as="geometry" />
        </mxCell>
        <mxCell id="sLV_BqBoZg84xg_BYXa9-28" style="edgeStyle=orthogonalEdgeStyle;rounded=0;orthogonalLoop=1;jettySize=auto;html=1;exitX=0.25;exitY=1;exitDx=0;exitDy=0;entryX=0.5;entryY=0;entryDx=0;entryDy=0;" edge="1" parent="1" source="sLV_BqBoZg84xg_BYXa9-15">
          <mxGeometry relative="1" as="geometry">
            <mxPoint x="340" y="390" as="targetPoint" />
          </mxGeometry>
        </mxCell>
        <mxCell id="sLV_BqBoZg84xg_BYXa9-15" value="PIEZA" style="whiteSpace=wrap;html=1;align=center;fillColor=#fff2cc;strokeColor=#d6b656;" vertex="1" parent="1">
          <mxGeometry x="380" y="310" width="100" height="40" as="geometry" />
        </mxCell>
        <mxCell id="sLV_BqBoZg84xg_BYXa9-16" value="" style="edgeStyle=entityRelationEdgeStyle;fontSize=12;html=1;endArrow=ERoneToMany;rounded=0;exitX=0.5;exitY=1;exitDx=0;exitDy=0;" edge="1" parent="1" source="sLV_BqBoZg84xg_BYXa9-3">
          <mxGeometry width="100" height="100" relative="1" as="geometry">
            <mxPoint x="360" y="330" as="sourcePoint" />
            <mxPoint x="90" y="330" as="targetPoint" />
          </mxGeometry>
        </mxCell>
        <mxCell id="sLV_BqBoZg84xg_BYXa9-17" value="" style="edgeStyle=entityRelationEdgeStyle;fontSize=12;html=1;endArrow=ERmany;startArrow=ERmany;rounded=0;" edge="1" parent="1" source="sLV_BqBoZg84xg_BYXa9-14" target="sLV_BqBoZg84xg_BYXa9-15">
          <mxGeometry width="100" height="100" relative="1" as="geometry">
            <mxPoint x="360" y="330" as="sourcePoint" />
            <mxPoint x="460" y="230" as="targetPoint" />
          </mxGeometry>
        </mxCell>
        <mxCell id="sLV_BqBoZg84xg_BYXa9-18" value="N:M" style="text;html=1;resizable=0;autosize=1;align=center;verticalAlign=middle;points=[];fillColor=none;strokeColor=none;rounded=0;" vertex="1" parent="1">
          <mxGeometry x="125" y="330" width="50" height="30" as="geometry" />
        </mxCell>
        <mxCell id="sLV_BqBoZg84xg_BYXa9-19" value="COD_PZA" style="ellipse;whiteSpace=wrap;html=1;align=center;fontStyle=4;fillColor=#647687;fontColor=#ffffff;strokeColor=#314354;" vertex="1" parent="1">
          <mxGeometry x="360" y="240" width="100" height="40" as="geometry" />
        </mxCell>
        <mxCell id="sLV_BqBoZg84xg_BYXa9-20" value="COLOR" style="ellipse;whiteSpace=wrap;html=1;align=center;fillColor=#ffe6cc;strokeColor=#d79b00;" vertex="1" parent="1">
          <mxGeometry x="530" y="360" width="100" height="40" as="geometry" />
        </mxCell>
        <mxCell id="sLV_BqBoZg84xg_BYXa9-21" value="NOMBRE" style="ellipse;whiteSpace=wrap;html=1;align=center;fillColor=#ffe6cc;strokeColor=#d79b00;" vertex="1" parent="1">
          <mxGeometry x="530" y="260" width="100" height="40" as="geometry" />
        </mxCell>
        <mxCell id="sLV_BqBoZg84xg_BYXa9-33" style="edgeStyle=orthogonalEdgeStyle;rounded=0;orthogonalLoop=1;jettySize=auto;html=1;exitX=0;exitY=1;exitDx=0;exitDy=0;" edge="1" parent="1" source="sLV_BqBoZg84xg_BYXa9-29" target="sLV_BqBoZg84xg_BYXa9-31">
          <mxGeometry relative="1" as="geometry" />
        </mxCell>
        <mxCell id="sLV_BqBoZg84xg_BYXa9-34" style="edgeStyle=orthogonalEdgeStyle;rounded=0;orthogonalLoop=1;jettySize=auto;html=1;exitX=1;exitY=0.5;exitDx=0;exitDy=0;entryX=0.435;entryY=-0.013;entryDx=0;entryDy=0;entryPerimeter=0;" edge="1" parent="1" source="sLV_BqBoZg84xg_BYXa9-29" target="sLV_BqBoZg84xg_BYXa9-32">
          <mxGeometry relative="1" as="geometry" />
        </mxCell>
        <mxCell id="sLV_BqBoZg84xg_BYXa9-29" value="CATEGORIA" style="ellipse;whiteSpace=wrap;html=1;align=center;fillColor=#ffe6cc;strokeColor=#d79b00;" vertex="1" parent="1">
          <mxGeometry x="400" y="500" width="100" height="40" as="geometry" />
        </mxCell>
        <mxCell id="sLV_BqBoZg84xg_BYXa9-30" value="PRECIO" style="ellipse;whiteSpace=wrap;html=1;align=center;fillColor=#ffe6cc;strokeColor=#d79b00;" vertex="1" parent="1">
          <mxGeometry x="290" y="390" width="100" height="40" as="geometry" />
        </mxCell>
        <mxCell id="sLV_BqBoZg84xg_BYXa9-31" value="COD_CAT" style="ellipse;whiteSpace=wrap;html=1;align=center;fontStyle=4;fillColor=#647687;fontColor=#ffffff;strokeColor=#314354;" vertex="1" parent="1">
          <mxGeometry x="370" y="580" width="100" height="40" as="geometry" />
        </mxCell>
        <mxCell id="sLV_BqBoZg84xg_BYXa9-32" value="NOM_CAT" style="ellipse;whiteSpace=wrap;html=1;align=center;fillColor=#ffe6cc;strokeColor=#d79b00;" vertex="1" parent="1">
          <mxGeometry x="520" y="550" width="100" height="40" as="geometry" />
        </mxCell>
        <mxCell id="sLV_BqBoZg84xg_BYXa9-35" value="PK" style="text;html=1;resizable=0;autosize=1;align=center;verticalAlign=middle;points=[];fillColor=none;strokeColor=none;rounded=0;" vertex="1" parent="1">
          <mxGeometry x="10" y="60" width="40" height="30" as="geometry" />
        </mxCell>
        <mxCell id="sLV_BqBoZg84xg_BYXa9-36" value="PK" style="text;html=1;resizable=0;autosize=1;align=center;verticalAlign=middle;points=[];fillColor=none;strokeColor=none;rounded=0;" vertex="1" parent="1">
          <mxGeometry x="450" y="245" width="40" height="30" as="geometry" />
        </mxCell>
        <mxCell id="sLV_BqBoZg84xg_BYXa9-37" value="PK" style="text;html=1;resizable=0;autosize=1;align=center;verticalAlign=middle;points=[];fillColor=none;strokeColor=none;rounded=0;" vertex="1" parent="1">
          <mxGeometry x="460" y="590" width="40" height="30" as="geometry" />
        </mxCell>
        <mxCell id="sLV_BqBoZg84xg_BYXa9-38" value="TIENE" style="shape=rhombus;perimeter=rhombusPerimeter;whiteSpace=wrap;html=1;align=center;fillColor=#dae8fc;strokeColor=#6c8ebf;" vertex="1" parent="1">
          <mxGeometry x="390" y="400" width="120" height="60" as="geometry" />
        </mxCell>
        <mxCell id="sLV_BqBoZg84xg_BYXa9-39" value="" style="edgeStyle=entityRelationEdgeStyle;fontSize=12;html=1;endArrow=ERoneToMany;rounded=0;entryX=0.5;entryY=0;entryDx=0;entryDy=0;" edge="1" parent="1" target="sLV_BqBoZg84xg_BYXa9-38">
          <mxGeometry width="100" height="100" relative="1" as="geometry">
            <mxPoint x="480" y="345" as="sourcePoint" />
            <mxPoint x="580" y="245" as="targetPoint" />
          </mxGeometry>
        </mxCell>
        <mxCell id="sLV_BqBoZg84xg_BYXa9-43" value="" style="edgeStyle=entityRelationEdgeStyle;fontSize=12;html=1;endArrow=ERmany;startArrow=ERmany;rounded=0;exitX=0.5;exitY=0;exitDx=0;exitDy=0;" edge="1" parent="1" source="sLV_BqBoZg84xg_BYXa9-29" target="sLV_BqBoZg84xg_BYXa9-38">
          <mxGeometry width="100" height="100" relative="1" as="geometry">
            <mxPoint x="360" y="540" as="sourcePoint" />
            <mxPoint x="460" y="440" as="targetPoint" />
          </mxGeometry>
        </mxCell>
        <mxCell id="sLV_BqBoZg84xg_BYXa9-45" value="N:M" style="text;html=1;resizable=0;autosize=1;align=center;verticalAlign=middle;points=[];fillColor=none;strokeColor=none;rounded=0;" vertex="1" parent="1">
          <mxGeometry x="425" y="430" width="50" height="30" as="geometry" />
        </mxCell>
      </root>
    </mxGraphModel>
  </diagram>
</mxfile>
